<svg width="21" height="18" viewBox="0 0 21 18" fill="none" xmlns="http://www.w3.org/2000/svg">
<path d="M7.49993 2.93991C8.56729 2.33516 9.77314 2.01729 10.9999 2.01729C12.2267 2.01729 13.4326 2.33516 14.4999 2.93991C14.6141 3.00603 14.7401 3.04892 14.8709 3.0661C15.0017 3.08329 15.1346 3.07443 15.2619 3.04004C15.3893 3.00564 15.5085 2.9464 15.6129 2.86572C15.7172 2.78503 15.8046 2.6845 15.8699 2.56991C16.0003 2.3403 16.0346 2.06844 15.9653 1.81365C15.8959 1.55886 15.7287 1.34183 15.4999 1.20991C14.1272 0.433457 12.577 0.0253906 10.9999 0.0253906C9.42286 0.0253906 7.87261 0.433457 6.49993 1.20991C6.2712 1.34183 6.10392 1.55886 6.03461 1.81365C5.96529 2.06844 5.99955 2.3403 6.12993 2.56991C6.19526 2.6845 6.28261 2.78503 6.38696 2.86572C6.49131 2.9464 6.61058 3.00564 6.73792 3.04004C6.86526 3.07443 6.99815 3.08329 7.12893 3.0661C7.25971 3.04892 7.38579 3.00603 7.49993 2.93991ZM17.4199 8.20991C17.316 7.96543 17.1957 7.72822 17.0599 7.49991C16.9913 7.3873 16.9011 7.28937 16.7944 7.21177C16.6878 7.13417 16.5669 7.07843 16.4386 7.04776C16.3103 7.01709 16.1773 7.01209 16.0471 7.03306C15.9169 7.05402 15.7921 7.10053 15.6799 7.16991C15.4552 7.30848 15.2944 7.53027 15.2326 7.78691C15.1708 8.04356 15.213 8.31424 15.3499 8.53991C15.5045 8.80642 15.6318 9.08785 15.7299 9.37991C15.7871 9.55175 15.8898 9.70485 16.0272 9.82285C16.1646 9.94085 16.3314 10.0193 16.5099 10.0499C17.2058 10.17 17.837 10.5316 18.2924 11.0712C18.7479 11.6108 18.9984 12.2938 18.9999 12.9999C18.9999 13.7956 18.6839 14.5586 18.1212 15.1212C17.5586 15.6838 16.7956 15.9999 15.9999 15.9999H4.65993C4.25194 15.9371 3.87338 15.7496 3.57618 15.4632C3.27897 15.1767 3.07768 14.8053 2.99993 14.3999C2.93986 14.106 2.9467 13.8023 3.01993 13.5113C3.09317 13.2204 3.23092 12.9496 3.42299 12.7191C3.61506 12.4886 3.85653 12.3043 4.1295 12.1798C4.40248 12.0553 4.69996 11.9938 4.99993 11.9999C5.26514 11.9999 5.5195 11.8946 5.70703 11.707C5.89457 11.5195 5.99993 11.2651 5.99993 10.9999C5.99792 10.1251 6.2292 9.26559 6.66993 8.50991C6.73605 8.39578 6.77893 8.26969 6.79612 8.13892C6.8133 8.00814 6.80444 7.87525 6.77005 7.74791C6.73566 7.62057 6.67641 7.50129 6.59573 7.39694C6.51505 7.2926 6.41451 7.20524 6.29993 7.13991C6.07031 7.00954 5.79845 6.97528 5.54366 7.04459C5.28888 7.11391 5.07185 7.28118 4.93993 7.50991C4.47162 8.30716 4.17209 9.19212 4.05993 10.1099C3.22557 10.3131 2.47875 10.7794 1.92993 11.4399C1.46313 11.9881 1.15295 12.6521 1.0321 13.3618C0.911243 14.0716 0.984204 14.8008 1.24328 15.4726C1.50236 16.1444 1.93795 16.7337 2.50409 17.1786C3.07023 17.6234 3.74594 17.9071 4.45993 17.9999H4.58993H15.9999C17.1993 17.9966 18.3575 17.5623 19.2633 16.7762C20.1691 15.9901 20.7622 14.9046 20.9344 13.7177C21.1065 12.5307 20.8463 11.3214 20.2012 10.3104C19.556 9.29931 18.5689 8.55384 17.4199 8.20991ZM13.8699 5.99991C13.8699 5.99991 13.8699 5.99991 13.8699 5.93991C13.9218 5.87917 13.9655 5.81194 13.9999 5.73991C14.0946 5.49321 14.0879 5.21904 13.9811 4.97732C13.8743 4.7356 13.6761 4.54599 13.4299 4.44991C12.8706 4.24226 12.2849 4.11434 11.6899 4.06991C11.5899 4.06991 11.4899 4.06991 11.3899 4.06991C11.1203 4.0499 10.8496 4.0499 10.5799 4.06991C10.4767 4.06457 10.3732 4.06457 10.2699 4.06991C9.67498 4.11434 9.08923 4.24226 8.52993 4.44991C8.29099 4.55357 8.10192 4.74636 8.00294 4.98728C7.90396 5.22819 7.90288 5.49822 7.99993 5.73991C8.034 5.8068 8.07417 5.87041 8.11993 5.92991C8.11661 5.96651 8.11661 6.00332 8.11993 6.03991C8.18609 6.15367 8.27406 6.25324 8.37878 6.33293C8.4835 6.41262 8.60292 6.47086 8.7302 6.5043C8.85747 6.53775 8.9901 6.54574 9.12047 6.52783C9.25084 6.50992 9.37639 6.46645 9.48993 6.39991C9.94852 6.1442 10.4649 6.00997 10.9899 6.00997C11.515 6.00997 12.0313 6.1442 12.4899 6.39991C12.6063 6.46644 12.7348 6.50889 12.8679 6.52476C13.001 6.54062 13.1359 6.52957 13.2647 6.49225C13.3934 6.45494 13.5133 6.39213 13.6173 6.30755C13.7213 6.22297 13.8072 6.11835 13.8699 5.99991ZM9.99993 8.99991C9.99993 9.1977 10.0586 9.39104 10.1685 9.55548C10.2783 9.71993 10.4345 9.84811 10.6172 9.92379C10.8 9.99948 11.001 10.0193 11.195 9.9807C11.389 9.94211 11.5672 9.84687 11.707 9.70702C11.8469 9.56717 11.9421 9.38899 11.9807 9.195C12.0193 9.00102 11.9995 8.79996 11.9238 8.61723C11.8481 8.4345 11.7199 8.27833 11.5555 8.16844C11.391 8.05856 11.1977 7.99991 10.9999 7.99991C10.7347 7.99991 10.4804 8.10527 10.2928 8.29281C10.1053 8.48034 9.99993 8.7347 9.99993 8.99991Z" fill="#DD33DD"/>
</svg>
