<svg width="131" height="27" viewBox="0 0 131 27" fill="none" xmlns="http://www.w3.org/2000/svg">
<path d="M9.90234 1.44531C11.2617 1.44531 12.5625 1.70313 13.8047 2.21875C15.0469 2.71094 16.0664 3.48438 16.8633 4.53906C17.6836 5.57031 18.0938 6.89453 18.0938 8.51172C18.0938 9.96484 17.6719 11.1953 16.8281 12.2031C16.0078 13.2109 14.9531 13.9727 13.6641 14.4883C12.3984 14.9805 11.0859 15.2266 9.72656 15.2266C9.30469 15.2266 8.74219 15.2031 8.03906 15.1562L19.0078 25H14.1562L4.03125 15.1562V25H0.867188V1.44531H9.90234ZM4.03125 4.43359V11.9922C4.80469 12.2031 5.64844 12.3672 6.5625 12.4844C7.47656 12.6016 8.37891 12.6602 9.26953 12.6602C11.0508 12.6602 12.4219 12.2852 13.3828 11.5352C14.3672 10.7852 14.8594 9.77734 14.8594 8.51172C14.8594 7.19922 14.3203 6.19141 13.2422 5.48828C12.1875 4.78516 10.8984 4.43359 9.375 4.43359H4.03125ZM30.293 7.07031C32.0742 7.07031 33.6562 7.49219 35.0391 8.33594C36.4219 9.17969 37.5 10.3047 38.2734 11.7109C39.0703 13.1172 39.4688 14.6523 39.4688 16.3164C39.4688 17.9805 39.0703 19.5156 38.2734 20.9219C37.5 22.3047 36.4219 23.418 35.0391 24.2617C33.6562 25.1055 32.0742 25.5273 30.293 25.5273C28.5117 25.5273 26.9297 25.1055 25.5469 24.2617C24.1641 23.418 23.0742 22.3047 22.2773 20.9219C21.5039 19.5156 21.1172 17.9805 21.1172 16.3164C21.1172 14.6523 21.5039 13.1172 22.2773 11.7109C23.0742 10.3047 24.1641 9.17969 25.5469 8.33594C26.9297 7.49219 28.5117 7.07031 30.293 7.07031ZM30.293 9.88281C29.0508 9.88281 27.9609 10.1875 27.0234 10.7969C26.0859 11.3828 25.3594 12.168 24.8438 13.1523C24.3516 14.1133 24.1055 15.168 24.1055 16.3164C24.1055 17.4414 24.3516 18.4961 24.8438 19.4805C25.3594 20.4414 26.0859 21.2266 27.0234 21.8359C27.9609 22.4219 29.0508 22.7148 30.293 22.7148C31.5586 22.7148 32.6484 22.4219 33.5625 21.8359C34.5 21.2266 35.2148 20.4414 35.707 19.4805C36.2227 18.4961 36.4805 17.4414 36.4805 16.3164C36.4805 15.168 36.2227 14.1133 35.707 13.1523C35.2148 12.168 34.5 11.3828 33.5625 10.7969C32.6484 10.1875 31.5586 9.88281 30.293 9.88281ZM49.4531 7.07031C50.4844 7.07031 51.4453 7.22266 52.3359 7.52734C53.2266 7.80859 53.8711 8.10156 54.2695 8.40625V11.5C53.7773 11.125 53.1094 10.7617 52.2656 10.4102C51.4219 10.0586 50.5547 9.88281 49.6641 9.88281C48.5625 9.88281 47.7305 10.1406 47.168 10.6562C46.6289 11.1719 46.3594 11.7109 46.3594 12.2734C46.3594 12.7188 46.5117 13.1758 46.8164 13.6445C47.1445 14.0898 47.707 14.4531 48.5039 14.7344L51.457 15.7891C52.6055 16.1875 53.4609 16.7617 54.0234 17.5117C54.5859 18.2617 54.8672 19.1406 54.8672 20.1484C54.8672 21.1328 54.5859 22.0352 54.0234 22.8555C53.4844 23.6758 52.7227 24.332 51.7383 24.8242C50.7773 25.293 49.6641 25.5273 48.3984 25.5273C47.7188 25.5273 47.0039 25.4336 46.2539 25.2461C45.5273 25.082 44.8711 24.8828 44.2852 24.6484C43.6992 24.3906 43.2656 24.168 42.9844 23.9805V20.8867C43.3125 21.1211 43.7695 21.3906 44.3555 21.6953C44.9648 21.9766 45.6094 22.2227 46.2891 22.4336C46.9688 22.6211 47.6016 22.7148 48.1875 22.7148C49.2891 22.7148 50.1562 22.4688 50.7891 21.9766C51.4453 21.4844 51.7734 20.875 51.7734 20.1484C51.7734 19.5859 51.5508 19.1406 51.1055 18.8125C50.6836 18.4844 50.0625 18.168 49.2422 17.8633L46.6406 16.9141C45.2812 16.3984 44.3789 15.7539 43.9336 14.9805C43.4883 14.1836 43.2656 13.2812 43.2656 12.2734C43.2656 10.7734 43.8281 9.53125 44.9531 8.54688C46.0781 7.5625 47.5781 7.07031 49.4531 7.07031ZM66.5039 7.07031C67.5117 7.07031 68.5312 7.31641 69.5625 7.80859C70.6172 8.27734 71.5195 8.93359 72.2695 9.77734V7.42188H75.1523V25H72.2695V22.0117C71.6602 22.9492 70.8281 23.7695 69.7734 24.4727C68.7422 25.1758 67.5586 25.5273 66.2227 25.5273C64.7227 25.5273 63.3516 25.1523 62.1094 24.4023C60.8672 23.6289 59.8711 22.5625 59.1211 21.2031C58.3945 19.8438 58.0312 18.2734 58.0312 16.4922C58.0312 14.5469 58.3945 12.8711 59.1211 11.4648C59.8711 10.0586 60.8906 8.98047 62.1797 8.23047C63.4688 7.45703 64.9102 7.07031 66.5039 7.07031ZM67.0312 9.88281C65.7656 9.88281 64.6875 10.1992 63.7969 10.832C62.9062 11.4648 62.2148 12.2852 61.7227 13.293C61.2539 14.2773 61.0195 15.3438 61.0195 16.4922C61.0195 17.6172 61.2539 18.6602 61.7227 19.6211C62.1914 20.5586 62.8477 21.3086 63.6914 21.8711C64.5586 22.4336 65.5547 22.7148 66.6797 22.7148C67.7578 22.7148 68.7188 22.4336 69.5625 21.8711C70.4062 21.3086 71.0742 20.5352 71.5664 19.5508C72.0586 18.543 72.293 17.418 72.2695 16.1758L72.2344 12.8008C71.5078 11.8867 70.7227 11.1719 69.8789 10.6562C69.0586 10.1406 68.1094 9.88281 67.0312 9.88281ZM93.8203 7.07031C94.8516 7.07031 95.8125 7.22266 96.7031 7.52734C97.5938 7.80859 98.2383 8.10156 98.6367 8.40625V11.5C98.1445 11.125 97.4766 10.7617 96.6328 10.4102C95.7891 10.0586 94.9219 9.88281 94.0312 9.88281C92.9297 9.88281 92.0977 10.1406 91.5352 10.6562C90.9961 11.1719 90.7266 11.7109 90.7266 12.2734C90.7266 12.7188 90.8789 13.1758 91.1836 13.6445C91.5117 14.0898 92.0742 14.4531 92.8711 14.7344L95.8242 15.7891C96.9727 16.1875 97.8281 16.7617 98.3906 17.5117C98.9531 18.2617 99.2344 19.1406 99.2344 20.1484C99.2344 21.1328 98.9531 22.0352 98.3906 22.8555C97.8516 23.6758 97.0898 24.332 96.1055 24.8242C95.1445 25.293 94.0312 25.5273 92.7656 25.5273C92.0859 25.5273 91.3711 25.4336 90.6211 25.2461C89.8945 25.082 89.2383 24.8828 88.6523 24.6484C88.0664 24.3906 87.6328 24.168 87.3516 23.9805V20.8867C87.6797 21.1211 88.1367 21.3906 88.7227 21.6953C89.332 21.9766 89.9766 22.2227 90.6562 22.4336C91.3359 22.6211 91.9688 22.7148 92.5547 22.7148C93.6562 22.7148 94.5234 22.4688 95.1562 21.9766C95.8125 21.4844 96.1406 20.875 96.1406 20.1484C96.1406 19.5859 95.918 19.1406 95.4727 18.8125C95.0508 18.4844 94.4297 18.168 93.6094 17.8633L91.0078 16.9141C89.6484 16.3984 88.7461 15.7539 88.3008 14.9805C87.8555 14.1836 87.6328 13.2812 87.6328 12.2734C87.6328 10.7734 88.1953 9.53125 89.3203 8.54688C90.4453 7.5625 91.9453 7.07031 93.8203 7.07031Z" fill="#F5F5F5"/>
<path d="M82.0078 0.8125L84.8906 1.79688L81.0234 10.832L78.8438 10.2695L82.0078 0.8125Z" fill="#DD33DD"/>
<path d="M117 1L120.143 10.6738H130.315L122.086 16.6525L125.229 26.3262L117 20.3475L108.771 26.3262L111.914 16.6525L103.685 10.6738H113.857L117 1Z" fill="#DD33DD"/>
</svg>
