<svg width="19" height="10" viewBox="0 0 19 10" fill="none" xmlns="http://www.w3.org/2000/svg">
<rect x="0.35" y="0.35" width="18.3" height="9.3" rx="0.65" stroke="#DD33DD" stroke-width="0.7"/>
<circle cx="3.25" cy="2.25" r="0.25" fill="#DD33DD"/>
<circle cx="3.25" cy="3.25" r="0.25" fill="#DD33DD"/>
<circle cx="11.25" cy="2.25" r="0.25" fill="#DD33DD"/>
<circle cx="11.25" cy="3.25" r="0.25" fill="#DD33DD"/>
<circle cx="4.25" cy="2.25" r="0.25" fill="#DD33DD"/>
<circle cx="4.25" cy="3.25" r="0.25" fill="#DD33DD"/>
<circle cx="12.25" cy="2.25" r="0.25" fill="#DD33DD"/>
<circle cx="12.25" cy="3.25" r="0.25" fill="#DD33DD"/>
<circle cx="5.25" cy="2.25" r="0.25" fill="#DD33DD"/>
<circle cx="5.25" cy="3.25" r="0.25" fill="#DD33DD"/>
<circle cx="13.25" cy="2.25" r="0.25" fill="#DD33DD"/>
<circle cx="13.25" cy="3.25" r="0.25" fill="#DD33DD"/>
<circle cx="6.25" cy="2.25" r="0.25" fill="#DD33DD"/>
<circle cx="6.25" cy="3.25" r="0.25" fill="#DD33DD"/>
<circle cx="14.25" cy="2.25" r="0.25" fill="#DD33DD"/>
<circle cx="14.25" cy="3.25" r="0.25" fill="#DD33DD"/>
<circle cx="7.25" cy="2.25" r="0.25" fill="#DD33DD"/>
<circle cx="7.25" cy="3.25" r="0.25" fill="#DD33DD"/>
<circle cx="15.25" cy="2.25" r="0.25" fill="#DD33DD"/>
<circle cx="15.25" cy="3.25" r="0.25" fill="#DD33DD"/>
<circle cx="8.25" cy="2.25" r="0.25" fill="#DD33DD"/>
<circle cx="8.25" cy="3.25" r="0.25" fill="#DD33DD"/>
<circle cx="16.25" cy="2.25" r="0.25" fill="#DD33DD"/>
<circle cx="16.25" cy="3.25" r="0.25" fill="#DD33DD"/>
<circle cx="15.2" cy="8.20039" r="0.2" transform="rotate(-180 15.2 8.20039)" fill="#DD33DD"/>
<circle cx="16.2" cy="8.20039" r="0.2" transform="rotate(-180 16.2 8.20039)" fill="#DD33DD"/>
<circle cx="15.2" cy="7.20039" r="0.2" transform="rotate(-180 15.2 7.20039)" fill="#DD33DD"/>
<circle cx="16.2" cy="7.20039" r="0.2" transform="rotate(-180 16.2 7.20039)" fill="#DD33DD"/>
<circle cx="15.2" cy="6.20039" r="0.2" transform="rotate(-180 15.2 6.20039)" fill="#DD33DD"/>
<circle cx="16.2" cy="6.20039" r="0.2" transform="rotate(-180 16.2 6.20039)" fill="#DD33DD"/>
<circle cx="15.2" cy="5.20039" r="0.2" transform="rotate(-180 15.2 5.20039)" fill="#DD33DD"/>
<circle cx="16.2" cy="5.20039" r="0.2" transform="rotate(-180 16.2 5.20039)" fill="#DD33DD"/>
<circle cx="9.25" cy="2.25" r="0.25" fill="#DD33DD"/>
<circle cx="9.25" cy="3.25" r="0.25" fill="#DD33DD"/>
<circle cx="2.25" cy="2.25" r="0.25" fill="#DD33DD"/>
<circle cx="2.25" cy="3.25" r="0.25" fill="#DD33DD"/>
<circle cx="10.25" cy="2.25" r="0.25" fill="#DD33DD"/>
<circle cx="10.25" cy="3.25" r="0.25" fill="#DD33DD"/>
<line x1="2.96464" y1="7.96464" x2="5.96464" y2="4.96464" stroke="#DD33DD" stroke-width="0.1"/>
<line x1="3.56462" y1="7.96464" x2="6.16677" y2="5.36249" stroke="#DD33DD" stroke-width="0.1"/>
<line x1="3.96464" y1="8.26445" x2="6.43952" y2="5.78958" stroke="#DD33DD" stroke-width="0.1"/>
<line x1="4.51469" y1="8.46464" x2="6.74208" y2="6.23726" stroke="#DD33DD" stroke-width="0.1"/>
<line x1="5.94995" y1="4.95" x2="9.94995" y2="4.95" stroke="#DD33DD" stroke-width="0.1"/>
<line x1="6.09998" y1="5.4002" x2="9.94998" y2="5.4002" stroke="#DD33DD" stroke-width="0.1"/>
<line x1="6.40002" y1="5.78008" x2="9.90002" y2="5.78008" stroke="#DD33DD" stroke-width="0.1"/>
<line x1="6.69995" y1="6.23027" x2="9.95995" y2="6.23027" stroke="#DD33DD" stroke-width="0.1"/>
<rect x="10.55" y="4.55" width="1.9" height="1.9" stroke="#DD33DD" stroke-width="0.1"/>
</svg>
