<svg width="18" height="22" viewBox="0 0 18 22" fill="none" xmlns="http://www.w3.org/2000/svg">
<path d="M7.50003 14.28V4.5C7.50003 4.23478 7.39467 3.98043 7.20713 3.79289C7.0196 3.60536 6.76524 3.5 6.50003 3.5C6.23481 3.5 5.98046 3.60536 5.79292 3.79289C5.60538 3.98043 5.50003 4.23478 5.50003 4.5V14.28C5.19775 14.4545 4.94641 14.7051 4.77098 15.0068C4.59555 15.3086 4.50213 15.651 4.50003 16C4.50003 16.5304 4.71074 17.0391 5.08581 17.4142C5.46089 17.7893 5.96959 18 6.50003 18C7.03046 18 7.53917 17.7893 7.91424 17.4142C8.28931 17.0391 8.50003 16.5304 8.50003 16C8.49792 15.651 8.40451 15.3086 8.22908 15.0068C8.05365 14.7051 7.8023 14.4545 7.50003 14.28ZM16.5 1.5H16V1C16 0.734784 15.8947 0.48043 15.7071 0.292893C15.5196 0.105357 15.2652 0 15 0C14.7348 0 14.4805 0.105357 14.2929 0.292893C14.1054 0.48043 14 0.734784 14 1V1.5H13.5C13.2348 1.5 12.9805 1.60536 12.7929 1.79289C12.6054 1.98043 12.5 2.23478 12.5 2.5C12.5 2.76522 12.6054 3.01957 12.7929 3.20711C12.9805 3.39464 13.2348 3.5 13.5 3.5H14V4C14 4.26522 14.1054 4.51957 14.2929 4.70711C14.4805 4.89464 14.7348 5 15 5C15.2652 5 15.5196 4.89464 15.7071 4.70711C15.8947 4.51957 16 4.26522 16 4V3.5H16.5C16.7652 3.5 17.0196 3.39464 17.2071 3.20711C17.3947 3.01957 17.5 2.76522 17.5 2.5C17.5 2.23478 17.3947 1.98043 17.2071 1.79289C17.0196 1.60536 16.7652 1.5 16.5 1.5V1.5ZM11 4.5C11 3.30653 10.5259 2.16193 9.68201 1.31802C8.83809 0.474106 7.6935 1.19209e-07 6.50003 1.19209e-07C5.30655 1.19209e-07 4.16196 0.474106 3.31805 1.31802C2.47413 2.16193 2.00003 3.30653 2.00003 4.5V12C1.30887 12.7832 0.834155 13.7333 0.62284 14.7562C0.411524 15.7792 0.47093 16.8396 0.795182 17.8326C1.11943 18.8255 1.6973 19.7166 2.47161 20.4177C3.24592 21.1188 4.18985 21.6056 5.21003 21.83C5.63055 21.926 6.05903 21.9829 6.49003 22C7.6515 22.0074 8.79015 21.6774 9.76777 21.0503C10.7454 20.4231 11.52 19.5257 11.9975 18.4669C12.475 17.4081 12.6349 16.2334 12.4579 15.0855C12.2808 13.9376 11.7744 12.8657 11 12V4.5ZM9.00003 19.11C8.47333 19.5382 7.84631 19.8254 7.178 19.9444C6.5097 20.0634 5.82209 20.0104 5.17993 19.7904C4.53777 19.5703 3.96217 19.1905 3.50733 18.6865C3.05249 18.1826 2.73338 17.5713 2.58003 16.91C2.42553 16.2415 2.44557 15.5446 2.63821 14.8861C2.83084 14.2276 3.18961 13.6298 3.68003 13.15C3.77452 13.0574 3.84969 12.9469 3.90118 12.8251C3.95268 12.7032 3.97948 12.5723 3.98003 12.44V4.5C3.98003 3.83696 4.24342 3.20107 4.71226 2.73223C5.1811 2.26339 5.81699 2 6.48003 2C7.14307 2 7.77895 2.26339 8.24779 2.73223C8.71664 3.20107 8.98003 3.83696 8.98003 4.5V12.44C8.98058 12.5723 9.00738 12.7032 9.05887 12.8251C9.11037 12.9469 9.18554 13.0574 9.28003 13.15C9.68878 13.5449 10.0087 14.0223 10.2185 14.5505C10.4282 15.0787 10.523 15.6456 10.4965 16.2133C10.47 16.781 10.3228 17.3366 10.0648 17.843C9.80676 18.3493 9.44378 18.7949 9.00003 19.15V19.11Z" fill="#DD33DD"/>
</svg>
